<svg xmlns="http://www.w3.org/2000/svg" viewBox="0 0 64 64" fill="none">
  <rect x="12" y="16" width="40" height="32" rx="4" stroke="url(#grad6)" stroke-width="3"/>
  <path d="M20 48V52M44 48V52" stroke="url(#grad6)" stroke-width="3" stroke-linecap="round"/>
  <path d="M12 36H8C6.89543 36 6 35.1046 6 34V30C6 28.8954 6.89543 28 8 28H12" stroke="url(#grad6)" stroke-width="3"/>
  <path d="M52 36H56C57.1046 36 58 35.1046 58 34V30C58 28.8954 57.1046 28 56 28H52" stroke="url(#grad6)" stroke-width="3"/>
  <rect x="20" y="24" width="24" height="16" rx="2" fill="url(#grad6)" opacity="0.3"/>
  <circle cx="28" cy="32" r="3" fill="url(#grad6)"/>
  <circle cx="36" cy="32" r="3" fill="url(#grad6)"/>
  <defs>
    <linearGradient id="grad6" x1="0%" y1="0%" x2="100%" y2="100%">
      <stop offset="0%" style="stop-color:#3B82F6"/>
      <stop offset="100%" style="stop-color:#8B5CF6"/>
    </linearGradient>
  </defs>
</svg>
